# xmcd
#
# Track frame offsets:
#	150
#	13412
#	24204
#	36969
#	48177
#	60418
#	71090
#	81762
#	94164
#	108953
#	124161
#	135185
#	146652
#	160535
#	176598
#	187154
#	197931
#	206519
#	215983
#	235537
#	246964
#
# Disc length: 3432 seconds
#
# Revision: 0
# Processed by: cddbd v1.5.1PL0 Copyright (c) Steve Scherf et al.
# Submitted via: EasyCDDAExtractor 5.0.2.1
#
DISCID=290d6615
DTITLE=Various Artist - The Final Answers
DYEAR=1900
DGENRE=Country
TTITLE0=Ray Petersen - Tell Laura I love her
TTITLE1=Skeeter Davis - Tell Tommy I miss him
TTITLE2=Eddy Arnold - I really don't want to know
TTITLE3=Skeeter Davis - I really want you to know
TTITLE4=Don Gibson - Just one time
TTITLE5=Skeeter Davis - I want to see you too (just one more time )
TTITLE6=Hank Locklin - Please help me I'm falling
TTITLE7=Skeeter Davis - Please help me I'm falling too
TTITLE8=Dawn - Tie a yellow ribbon round the old oak tree
TTITLE9=Connie Francis - Shall I tie a yellow riboon round the old oak tree
TTITLE10=Floyd Cramer  - Last date
TTITLE11=Skeeter Davis - My last date with you
TTITLE12=Elvis Presley - Are you lonesome tonight
TTITLE13=Dodie Stevens - Yes I'm lonesome tonight
TTITLE14=JIm reeves - He'll have to go
TTITLE15=Skeeter Davis - He'll have to stay
TTITLE16=Skeeter Davis and Bobby Bare - Dear John
TTITLE17=Skeeter Davis and Porter Wagoner - A little bitty tear
TTITLE18=Conway Twitty - Don't cry Joni
TTITLE19=Skeeter Davis and Porter Wagoner - Have I told you lately that I love y
TTITLE19=ou
TTITLE20=Skeeter Davis and Bobby Bare - We'll sing in the sunshine
EXTD=
EXTT0=
EXTT1=
EXTT2=
EXTT3=
EXTT4=
EXTT5=
EXTT6=
EXTT7=
EXTT8=
EXTT9=
EXTT10=
EXTT11=
EXTT12=
EXTT13=
EXTT14=
EXTT15=
EXTT16=
EXTT17=
EXTT18=
EXTT19=
EXTT20=
PLAYORDER=
